# xmcd
#
# Track frame offsets:
#	150
#	32176
#	46732
#	77802
#	99723
#	133056
#	158940
#	178245
#	205397
#	240738
#	271757
#	300925
#	328435
#
# Disc length: 4564 seconds
#
# Revision: 0
# Processed by: cddbd v1.5.1PL0 Copyright (c) Steve Scherf et al.
# Submitted via: audiograbber 1.83.01
#
DISCID=b611d20d
DTITLE=blaat - Maart 2005
DYEAR=1900
DGENRE=
TTITLE0=50 Cent vs Bobby Blanco - In Da Club (Johnny B's House Mix)
TTITLE1=Chemical Brothers - Galvanize
TTITLE2=Dr Kucho and Gregor Salto - Cant Stop Playing Amsterdam Funk Mix-Snd
TTITLE3=Eurythmics - Sweet Dreams
TTITLE4=Funkerman ft Fedde Le Grand - The Electric EP (Get this feel
TTITLE5=LnM Projekt - Everywhere
TTITLE6=MC Hammer - U Can't Touch This
TTITLE7=Milk and Sugar - Shut up (club mix)
TTITLE8=Milk and Sugar - What Is Love
TTITLE9=Rythm Fatal ft Redd Angel - Man in the mirror
TTITLE10=Lovefreaks - Shine
TTITLE11=Nice cream - Song 2 (club mix)
TTITLE12=Green Day - Basket Case
EXTD=
EXTT0=
EXTT1=
EXTT2=
EXTT3=
EXTT4=
EXTT5=
EXTT6=
EXTT7=
EXTT8=
EXTT9=
EXTT10=
EXTT11=
EXTT12=
PLAYORDER=
